{"title":"Catch.Hell.2014.720p.WEB-DL.H264.AAC.Raven","uid":11187881,"size":768180244,"categoryP":"video","categoryS":"movies","magnet":"?xt=urn:btih:33ccc3a286e63d02b0bee51623c08f88cca75bee&amp;dn=Catch.Hell.2014.720p.WEB-DL.H264.AAC.Raven&amp;tr=udp%3A%2F%2Ftracker.openbittorrent.com%3A80&amp;tr=udp%3A%2F%2Fopen.demonii.com%3A1337&amp;tr=udp%3A%2F%2Ftracker.coppersurfer.tk%3A6969&amp;tr=udp%3A%2F%2Fexodus.desync.com%3A6969","seeders":1,"leechers":0,"uploader":"Raven1969","files":-1,"time":1412952814,"description":"Catch.Hell.2014.720p.WEB-DL.H264.AAC.Raven.\n\n\n\n\n\nRuntime:\n98 Mins\n\n\n\nScreen images:\n\n\n &lt;a href=&quot;\nhttp://i.imgur.com/mdpXeMa.png&quot; rel=&quot;nofollow&quot; target=&quot;_NEW&quot;&gt;\nhttp://i.imgur.com/mdpXeMa.png&lt;/a&gt;\n\n\n &lt;a href=&quot;\nhttp://i.imgur.com/MWQdYOm.png&quot; rel=&quot;nofollow&quot; target=&quot;_NEW&quot;&gt;\nhttp://i.imgur.com/MWQdYOm.png&lt;/a&gt;\n\n\n &lt;a href=&quot;\nhttp://i.imgur.com/Z9y9Zo7.png&quot; rel=&quot;nofollow&quot; target=&quot;_NEW&quot;&gt;\nhttp://i.imgur.com/Z9y9Zo7.png&lt;/a&gt;\n\n\n &lt;a href=&quot;\nhttp://i.imgur.com/oUVlQJJ.png&quot; rel=&quot;nofollow&quot; target=&quot;_NEW&quot;&gt;\nhttp://i.imgur.com/oUVlQJJ.png&lt;/a&gt;\n\n\n &lt;a href=&quot;\nhttp://i.imgur.com/WHoRIRw.png&quot; rel=&quot;nofollow&quot; target=&quot;_NEW&quot;&gt;\nhttp://i.imgur.com/WHoRIRw.png&lt;/a&gt;\n\n\n &lt;a href=&quot;\nhttp://i.imgur.com/xQBDXUC.png&quot; rel=&quot;nofollow&quot; target=&quot;_NEW&quot;&gt;\nhttp://i.imgur.com/xQBDXUC.png&lt;/a&gt;\n\n\n\n\nIMDB:\n\n\n\n &lt;a href=&quot;\nhttp://www.imdb.com/title/tt2403558&quot; rel=&quot;nofollow&quot; target=&quot;_NEW&quot;&gt;\nhttp://www.imdb.com/title/tt2403558&lt;/a&gt;\n\n\n\n\nIMDB Rating:  5.1\n\n\n\n\nStoryline:\n\nWashed up Hollywood actor Reagon Pearce is kidnapped by thugs on the way to work in Shreveport, Louisiana. Trapped in a swamp hut, his kidnappers torture and blackmail him, hijacking his twitter account and threatening to upload compromising material. How can he escape his predicament?\n\n\n\n\nGeneral\nFormat                                   : MPEG-4\nFormat profile                           : Base Media\nCodec ID                                 : isom\nFile size                                : 728 MiB\nDuration                                 : 1h 37mn\nOverall bit rate mode                    : Variable\nOverall bit rate                         : 1 047 Kbps\nEncoded date                             : UTC 2014-10-10 11:19:44\nTagged date                              : UTC 2014-10-10 11:19:44\nWriting application                      : My MP4Box GUI 0.6.0.6 &lt;http://my-mp4box-gui.zymichost.com&gt;\n\nVideo\nID                                       : 1\nFormat                                   : AVC\nFormat/Info                              : Advanced Video Codec\nFormat profile                           : &lt;a class=&quot;__cf_email__&quot; href=&quot;/cdn-cgi/l/email-protection&quot; data-cfemail=&quot;92dafbf5fad2dea6bca2&quot;&gt;[email&amp;#160;protected]&lt;/a&gt;&lt;script cf-hash='f9e31' type=&quot;text/javascript&quot;&gt;\n/* &lt;![CDATA[ */!function(){try{var t=&quot;currentScript&quot;in document?document.currentScript:function(){for(var t=document.getElementsByTagName(&quot;script&quot;),e=t.length;e--;)if(t[e].getAttribute(&quot;cf-hash&quot;))return t[e]}();if(t&amp;&amp;t.previousSibling){var e,r,n,i,c=t.previousSibling,a=c.getAttribute(&quot;data-cfemail&quot;);if(a){for(e=&quot;&quot;,r=parseInt(a.substr(0,2),16),n=2;a.length-n;n+=2)i=parseInt(a.substr(n,2),16)^r,e+=String.fromCharCode(i);e=document.createTextNode(e),c.parentNode.replaceChild(e,c)}}}catch(u){}}();/* ]]&gt; */&lt;/script&gt;\nFormat settings, CABAC                   : Yes\nFormat settings, ReFrames                : 5 frames\nCodec ID                                 : avc1\nCodec ID/Info                            : Advanced Video Coding\nDuration                                 : 1h 37mn\nBit rate                                 : 950 Kbps\nMaximum bit rate                         : 5 493 Kbps\nWidth                                    : 1 280 pixels\nHeight                                   : 692 pixels\nDisplay aspect ratio                     : 1.85:1\nFrame rate mode                          : Constant\nFrame rate                               : 23.976 fps\nColor space                              : YUV\nChroma subsampling                       : 4:2:0\nBit depth                                : 8 bits\nScan type                                : Progressive\nBits/(Pixel*Frame)                       : 0.045\nStream size                              : 660 MiB (91%)\nTitle                                    : Catch.Hell.2014.720p.WEB-DL.H264.AAC.Raven.mp4\nWriting library                          : x264 core 142 \nLanguage                                 : English\nEncoded date                             : UTC 2014-10-10 10:56:42\nTagged date                              : UTC 2014-10-10 11:20:59\n\nAudio\nID                                       : 2\nFormat                                   : AAC\nFormat/Info                              : Advanced Audio Codec\nFormat profile                           : LC\nCodec ID                                 : 40\nDuration                                 : 1h 37mn\nBit rate mode                            : Variable\nBit rate                                 : 93.4 Kbps\nMaximum bit rate                         : 99.8 Kbps\nChannel(s)                               : 2 channels\nChannel positions                        : Front: L R\nSampling rate                            : 48.0 KHz\nCompression mode                         : Lossy\nStream size                              : 64.9 MiB (9%)\nTitle                                    : Audio AAC LC 96kb.aac\nEncoded date                             : UTC 2014-10-10 11:20:51\nTagged date                              : UTC 2014-10-10 11:20:59\n\n\n\n\nPLEASE  SEED FOR AS LONG AS POSSIBLE TO KEEP THE TORRENT ALIVE :-)","torrent":{"xt":"urn:btih:33ccc3a286e63d02b0bee51623c08f88cca75bee","amp;dn":"Catch.Hell.2014.720p.WEB-DL.H264.AAC.Raven","amp;tr":["udp%3A%2F%2Ftracker.openbittorrent.com%3A80","udp%3A%2F%2Fopen.demonii.com%3A1337","udp%3A%2F%2Ftracker.coppersurfer.tk%3A6969","udp%3A%2F%2Fexodus.desync.com%3A6969"],"infoHash":"33ccc3a286e63d02b0bee51623c08f88cca75bee","infoHashBuffer":{"type":"Buffer","data":[51,204,195,162,134,230,61,2,176,190,229,22,35,192,143,136,204,167,91,238]},"announce":[],"urlList":[]}}